<svg width="362" height="47" viewBox="0 0 362 47" fill="none" xmlns="http://www.w3.org/2000/svg">
<path d="M352.666 13.1358C352.7 13.2358 352.716 13.4025 352.716 13.6358C352.85 13.5691 353.15 13.4358 353.616 13.2358C354.116 13.0358 354.6 12.8525 355.066 12.6858C355.7 12.4858 356.416 12.3358 357.216 12.2358C358.016 12.1025 358.766 12.0191 359.466 11.9858C360.166 11.9525 360.75 11.9525 361.216 11.9858C361.716 11.9858 361.966 12.0025 361.966 12.0358C361.966 13.1691 361.95 14.1691 361.916 15.0358C361.916 15.9025 361.916 16.6858 361.916 17.3858C361.916 18.0525 361.916 18.6691 361.916 19.2358C361.916 19.8025 361.933 20.3358 361.966 20.8358L361.516 20.6858C361.35 20.6191 361.166 20.5691 360.966 20.5358C360.8 20.4691 360.633 20.4025 360.466 20.3358C360.066 20.2358 359.65 20.1525 359.216 20.0858C358.816 20.0191 358.6 19.9858 358.566 19.9858C357.666 19.8858 356.833 19.8358 356.066 19.8358C355.333 19.8358 354.683 19.9525 354.116 20.1858C353.583 20.4191 353.166 20.7858 352.866 21.2858C352.566 21.7858 352.433 22.5025 352.466 23.4358C352.5 24.6025 352.533 25.7025 352.566 26.7358C352.6 27.7691 352.616 28.8191 352.616 29.8858C352.616 30.9191 352.616 31.9858 352.616 33.0858C352.65 34.1525 352.666 35.3025 352.666 36.5358V36.7358C352.1 36.9025 351.583 37.0025 351.116 37.0358C350.65 37.0691 350.166 37.0691 349.666 37.0358C349.166 37.0358 348.616 37.0191 348.016 36.9858C347.45 36.9525 346.766 36.9691 345.966 37.0358C345.966 32.9358 345.916 28.8358 345.816 24.7358C345.75 20.6358 345.783 16.3858 345.916 11.9858C346.316 12.0191 346.65 12.0525 346.916 12.0858C347.183 12.0858 347.433 12.0858 347.666 12.0858C347.9 12.0858 348.15 12.0858 348.416 12.0858C348.683 12.0525 349.016 12.0191 349.416 11.9858C349.55 11.9858 349.783 11.9691 350.116 11.9358C350.483 11.9025 350.85 11.8691 351.216 11.8358C351.616 11.8025 351.95 11.8025 352.216 11.8358C352.516 11.8358 352.666 11.8691 352.666 11.9358C352.666 12.2025 352.666 12.4025 352.666 12.5358C352.666 12.6691 352.666 12.7858 352.666 12.8858C352.666 12.9525 352.666 13.0358 352.666 13.1358Z" fill="white"/>
<path d="M331.249 24.4859C330.516 24.4525 329.983 24.4025 329.649 24.3359V25.2359C329.683 26.2359 329.716 27.0525 329.749 27.6859C329.816 28.3192 330.033 28.9359 330.399 29.5359C330.799 30.3025 331.366 30.8692 332.099 31.2359C332.833 31.6025 333.549 31.7192 334.249 31.5859C334.949 31.4525 335.533 31.0525 335.999 30.3859C336.499 29.6859 336.716 28.6525 336.649 27.2859C336.983 27.3192 337.433 27.3359 337.999 27.3359C338.566 27.3025 339.149 27.2692 339.749 27.2359C340.383 27.2025 340.983 27.2025 341.549 27.2359C342.116 27.2359 342.583 27.2859 342.949 27.3859C342.883 28.2525 342.816 29.1025 342.749 29.9359C342.683 30.7692 342.599 31.5525 342.499 32.2859C342.399 32.9859 342.266 33.6025 342.099 34.1359C341.966 34.6359 341.783 34.9859 341.549 35.1859C340.983 35.9859 340.249 36.5525 339.349 36.8859C338.449 37.2192 337.466 37.4192 336.399 37.4859C335.333 37.5525 334.233 37.5525 333.099 37.4859C331.999 37.4192 330.983 37.3859 330.049 37.3859C329.116 37.2525 328.249 36.9525 327.449 36.4859C326.549 35.8525 325.799 35.0359 325.199 34.0359C324.599 33.0025 324.116 31.8859 323.749 30.6859C323.383 29.4525 323.133 28.1525 322.999 26.7859C322.866 25.4192 322.833 24.0525 322.899 22.6859C322.999 21.4525 323.099 20.2692 323.199 19.1359C323.333 17.9692 323.599 16.8359 323.999 15.7359C324.433 14.7692 325.099 13.9525 325.999 13.2859C326.899 12.5859 327.916 12.0692 329.049 11.7359C330.183 11.3692 331.383 11.1692 332.649 11.1359C333.916 11.1025 335.149 11.2359 336.349 11.5359C337.883 11.8025 339.116 12.3359 340.049 13.1359C340.983 13.9359 341.683 14.9025 342.149 16.0359C342.649 17.1692 342.949 18.4192 343.049 19.7859C343.149 21.1525 343.149 22.5359 343.049 23.9359C342.816 24.0025 342.366 24.0692 341.699 24.1359C341.066 24.2025 340.299 24.2692 339.399 24.3359C338.533 24.4025 337.599 24.4525 336.599 24.4859C335.599 24.5192 334.633 24.5359 333.699 24.5359C332.799 24.5359 331.983 24.5192 331.249 24.4859ZM337.099 17.9359C336.766 17.3359 336.299 16.8859 335.699 16.5859C335.433 16.4192 335.166 16.3025 334.899 16.2359C334.633 16.1359 334.316 16.0859 333.949 16.0859C333.149 16.0859 332.499 16.1692 331.999 16.3359C331.499 16.5025 331.099 16.7359 330.799 17.0359C330.499 17.3359 330.266 17.6859 330.099 18.0859C329.966 18.4859 329.866 18.9025 329.799 19.3359C329.733 19.7025 329.699 19.9692 329.699 20.1359C329.733 20.2692 329.899 20.3692 330.199 20.4359C330.499 20.4692 330.966 20.4859 331.599 20.4859C332.266 20.4525 333.233 20.4359 334.499 20.4359C335.366 20.4359 336.016 20.4525 336.449 20.4859C336.883 20.5192 337.183 20.5359 337.349 20.5359C337.549 20.5025 337.649 20.4525 337.649 20.3859C337.649 20.2859 337.649 20.1025 337.649 19.8359C337.649 19.1692 337.466 18.5359 337.099 17.9359Z" fill="white"/>
<path d="M313.047 9.63589C313.047 6.60256 313.197 3.56922 313.497 0.535889L320.297 0.68589C320.297 2.05256 320.28 3.70256 320.247 5.63589C320.213 7.56922 320.18 9.63589 320.147 11.8359C320.113 14.0359 320.08 16.3192 320.047 18.6859C320.047 21.0526 320.047 23.3359 320.047 25.5359C320.047 27.7359 320.063 29.8026 320.097 31.7359C320.13 33.6359 320.18 35.2526 320.247 36.5859C320.08 36.7859 319.663 36.8859 318.997 36.8859C318.33 36.9192 317.597 36.9192 316.797 36.8859C316.03 36.8859 315.297 36.8692 314.597 36.8359C313.897 36.8026 313.43 36.8192 313.197 36.8859C313.43 33.8859 313.513 30.8692 313.447 27.8359C313.413 24.8026 313.347 21.7692 313.247 18.7359C313.147 15.7026 313.08 12.6692 313.047 9.63589Z" fill="white"/>
<path d="M297.018 0.48584C297.585 0.48584 298.085 0.519174 298.518 0.585842V11.5358C298.518 12.6358 298.485 13.8025 298.418 15.0358C298.385 16.2692 298.418 17.2692 298.518 18.0358C299.085 17.5358 299.568 16.9858 299.968 16.3858C300.401 15.7858 300.801 15.1858 301.168 14.5858C301.535 13.9525 301.901 13.3192 302.268 12.6858C302.668 12.0525 303.118 11.4525 303.618 10.8858C304.051 11.0525 304.618 11.1525 305.318 11.1858C306.018 11.1858 306.735 11.1858 307.468 11.1858C308.235 11.1525 308.985 11.1192 309.718 11.0858C310.451 11.0192 311.051 11.0025 311.518 11.0358C310.285 12.9358 308.951 14.8192 307.518 16.6858C306.085 18.5192 304.668 20.3692 303.268 22.2358C304.768 24.6692 306.268 27.0858 307.768 29.4858C309.301 31.8525 310.701 34.3192 311.968 36.8858C311.501 36.8858 310.901 36.9025 310.168 36.9358C309.468 37.0025 308.735 37.0525 307.968 37.0858C307.201 37.1192 306.451 37.1192 305.718 37.0858C305.018 37.0525 304.418 36.9858 303.918 36.8858C303.418 36.0858 302.951 35.2692 302.518 34.4358C302.118 33.6025 301.718 32.7858 301.318 31.9858C300.918 31.1525 300.485 30.3358 300.018 29.5358C299.585 28.7358 299.085 27.9692 298.518 27.2358C298.518 27.8358 298.535 28.5358 298.568 29.3358C298.601 30.1358 298.618 30.9692 298.618 31.8358C298.618 32.7025 298.601 33.5858 298.568 34.4858C298.535 35.3525 298.451 36.1525 298.318 36.8858C297.951 36.8525 297.485 36.8525 296.918 36.8858C296.385 36.8858 295.818 36.9025 295.218 36.9358C294.618 36.9692 294.001 36.9858 293.368 36.9858C292.768 36.9858 292.218 36.9525 291.718 36.8858C291.485 30.6858 291.435 24.6025 291.568 18.6358C291.701 12.6692 291.751 6.65251 291.718 0.585842C292.218 0.585842 292.768 0.585842 293.368 0.585842C294.001 0.552507 294.618 0.53584 295.218 0.53584C295.851 0.502507 296.451 0.48584 297.018 0.48584Z" fill="white"/>
<path d="M277.001 24.4859C276.268 24.4525 275.735 24.4025 275.401 24.3359V25.2359C275.435 26.2359 275.468 27.0525 275.501 27.6859C275.568 28.3192 275.785 28.9359 276.151 29.5359C276.551 30.3025 277.118 30.8692 277.851 31.2359C278.585 31.6025 279.301 31.7192 280.001 31.5859C280.701 31.4525 281.285 31.0525 281.751 30.3859C282.251 29.6859 282.468 28.6525 282.401 27.2859C282.735 27.3192 283.185 27.3359 283.751 27.3359C284.318 27.3025 284.901 27.2692 285.501 27.2359C286.135 27.2025 286.735 27.2025 287.301 27.2359C287.868 27.2359 288.335 27.2859 288.701 27.3859C288.635 28.2525 288.568 29.1025 288.501 29.9359C288.435 30.7692 288.351 31.5525 288.251 32.2859C288.151 32.9859 288.018 33.6025 287.851 34.1359C287.718 34.6359 287.535 34.9859 287.301 35.1859C286.735 35.9859 286.001 36.5525 285.101 36.8859C284.201 37.2192 283.218 37.4192 282.151 37.4859C281.085 37.5525 279.985 37.5525 278.851 37.4859C277.751 37.4192 276.735 37.3859 275.801 37.3859C274.868 37.2525 274.001 36.9525 273.201 36.4859C272.301 35.8525 271.551 35.0359 270.951 34.0359C270.351 33.0025 269.868 31.8859 269.501 30.6859C269.135 29.4525 268.885 28.1525 268.751 26.7859C268.618 25.4192 268.585 24.0525 268.651 22.6859C268.751 21.4525 268.851 20.2692 268.951 19.1359C269.085 17.9692 269.351 16.8359 269.751 15.7359C270.185 14.7692 270.851 13.9525 271.751 13.2859C272.651 12.5859 273.668 12.0692 274.801 11.7359C275.935 11.3692 277.135 11.1692 278.401 11.1359C279.668 11.1025 280.901 11.2359 282.101 11.5359C283.635 11.8025 284.868 12.3359 285.801 13.1359C286.735 13.9359 287.435 14.9025 287.901 16.0359C288.401 17.1692 288.701 18.4192 288.801 19.7859C288.901 21.1525 288.901 22.5359 288.801 23.9359C288.568 24.0025 288.118 24.0692 287.451 24.1359C286.818 24.2025 286.051 24.2692 285.151 24.3359C284.285 24.4025 283.351 24.4525 282.351 24.4859C281.351 24.5192 280.385 24.5359 279.451 24.5359C278.551 24.5359 277.735 24.5192 277.001 24.4859ZM282.851 17.9359C282.518 17.3359 282.051 16.8859 281.451 16.5859C281.185 16.4192 280.918 16.3025 280.651 16.2359C280.385 16.1359 280.068 16.0859 279.701 16.0859C278.901 16.0859 278.251 16.1692 277.751 16.3359C277.251 16.5025 276.851 16.7359 276.551 17.0359C276.251 17.3359 276.018 17.6859 275.851 18.0859C275.718 18.4859 275.618 18.9025 275.551 19.3359C275.485 19.7025 275.451 19.9692 275.451 20.1359C275.485 20.2692 275.651 20.3692 275.951 20.4359C276.251 20.4692 276.718 20.4859 277.351 20.4859C278.018 20.4525 278.985 20.4359 280.251 20.4359C281.118 20.4359 281.768 20.4525 282.201 20.4859C282.635 20.5192 282.935 20.5359 283.101 20.5359C283.301 20.5025 283.401 20.4525 283.401 20.3859C283.401 20.2859 283.401 20.1025 283.401 19.8359C283.401 19.1692 283.218 18.5359 282.851 17.9359Z" fill="white"/>
<path d="M241.772 13.3357C241.772 13.7024 241.788 14.1191 241.822 14.5857C241.988 14.4857 242.188 14.3691 242.422 14.2357C242.688 14.1024 242.905 13.9691 243.072 13.8357C243.772 13.3357 244.555 12.9357 245.422 12.6357C246.288 12.3357 247.172 12.1691 248.072 12.1357C249.005 12.1024 249.905 12.2024 250.772 12.4357C251.638 12.6691 252.422 13.0857 253.122 13.6857C253.288 13.8524 253.455 14.1357 253.622 14.5357C253.788 14.4357 253.988 14.3357 254.222 14.2357C254.455 14.1024 254.655 13.9691 254.822 13.8357C255.522 13.3357 256.305 12.9357 257.172 12.6357C258.038 12.3357 258.922 12.1691 259.822 12.1357C260.755 12.1024 261.655 12.2024 262.522 12.4357C263.388 12.6691 264.172 13.0857 264.872 13.6857C265.205 13.9857 265.455 14.6191 265.622 15.5857C265.822 16.5191 265.938 17.6524 265.972 18.9857C266.038 20.3191 266.055 21.7857 266.022 23.3857C266.022 24.9524 266.005 26.5524 265.972 28.1857C265.938 29.7857 265.905 31.3357 265.872 32.8357C265.838 34.3357 265.855 35.6524 265.922 36.7857C264.755 36.9524 263.705 37.0191 262.772 36.9857C261.872 36.9857 260.838 36.9857 259.672 36.9857C259.605 36.2191 259.572 35.3524 259.572 34.3857C259.572 33.4191 259.572 32.4191 259.572 31.3857C259.605 30.3524 259.605 29.3191 259.572 28.2857C259.572 27.2524 259.538 26.2857 259.472 25.3857C259.438 24.9857 259.405 24.5524 259.372 24.0857C259.338 23.5857 259.272 23.1024 259.172 22.6357C259.105 22.1691 258.988 21.7524 258.822 21.3857C258.688 21.0191 258.488 20.7357 258.222 20.5357C258.188 20.5024 258.155 20.4857 258.122 20.4857C258.088 20.4857 258.055 20.4691 258.022 20.4357C257.822 20.3357 257.572 20.2524 257.272 20.1857C256.972 20.1191 256.638 20.0857 256.272 20.0857C255.938 20.0857 255.588 20.1524 255.222 20.2857C254.888 20.3857 254.572 20.5524 254.272 20.7857C254.305 22.0857 254.305 23.4691 254.272 24.9357C254.238 26.3691 254.205 27.8024 254.172 29.2357C254.138 30.6357 254.105 32.0024 254.072 33.3357C254.072 34.6357 254.105 35.7857 254.172 36.7857C253.005 36.9524 251.955 37.0191 251.022 36.9857C250.122 36.9857 249.088 36.9857 247.922 36.9857C247.855 36.2191 247.822 35.3524 247.822 34.3857C247.822 33.4191 247.822 32.4191 247.822 31.3857C247.855 30.3524 247.855 29.3191 247.822 28.2857C247.822 27.2524 247.788 26.2857 247.722 25.3857C247.688 24.9857 247.655 24.5524 247.622 24.0857C247.588 23.5857 247.522 23.1024 247.422 22.6357C247.355 22.1691 247.238 21.7524 247.072 21.3857C246.938 21.0191 246.738 20.7357 246.472 20.5357C246.438 20.5024 246.405 20.4857 246.372 20.4857C246.338 20.4857 246.305 20.4691 246.272 20.4357C246.005 20.3024 245.605 20.2024 245.072 20.1357C244.572 20.0357 244.072 20.0691 243.572 20.2357C243.072 20.3691 242.622 20.6691 242.222 21.1357C241.822 21.5691 241.588 22.2357 241.522 23.1357C241.455 24.3024 241.438 25.4524 241.472 26.5857C241.505 27.6857 241.538 28.8024 241.572 29.9357C241.638 31.0357 241.672 32.1357 241.672 33.2357C241.672 34.3357 241.605 35.4357 241.472 36.5357V36.7357C240.905 36.9024 240.405 37.0024 239.972 37.0357C239.572 37.0691 239.155 37.0691 238.722 37.0357C238.288 37.0357 237.805 37.0191 237.272 36.9857C236.738 36.9524 236.072 36.9691 235.272 37.0357C235.272 32.9357 235.222 28.8357 235.122 24.7357C235.055 20.6357 235.088 16.3857 235.222 11.9857C235.622 12.0191 235.955 12.0524 236.222 12.0857C236.488 12.0857 236.738 12.0857 236.972 12.0857C237.205 12.0857 237.455 12.0857 237.722 12.0857C237.988 12.0524 238.322 12.0191 238.722 11.9857C238.855 11.9857 239.088 11.9691 239.422 11.9357C239.755 11.8691 240.088 11.8191 240.422 11.7857C240.755 11.7524 241.055 11.7524 241.322 11.7857C241.588 11.7857 241.722 11.8357 241.722 11.9357C241.788 12.5024 241.805 12.9691 241.772 13.3357Z" fill="white"/>
<path d="M220.605 24.4859C219.872 24.4525 219.338 24.4025 219.005 24.3359V25.2359C219.038 26.2359 219.072 27.0525 219.105 27.6859C219.172 28.3192 219.388 28.9359 219.755 29.5359C220.155 30.3025 220.722 30.8692 221.455 31.2359C222.188 31.6025 222.905 31.7192 223.605 31.5859C224.305 31.4525 224.888 31.0525 225.355 30.3859C225.855 29.6859 226.072 28.6525 226.005 27.2859C226.338 27.3192 226.788 27.3359 227.355 27.3359C227.922 27.3025 228.505 27.2692 229.105 27.2359C229.738 27.2025 230.338 27.2025 230.905 27.2359C231.472 27.2359 231.938 27.2859 232.305 27.3859C232.238 28.2525 232.172 29.1025 232.105 29.9359C232.038 30.7692 231.955 31.5525 231.855 32.2859C231.755 32.9859 231.622 33.6025 231.455 34.1359C231.322 34.6359 231.138 34.9859 230.905 35.1859C230.338 35.9859 229.605 36.5525 228.705 36.8859C227.805 37.2192 226.822 37.4192 225.755 37.4859C224.688 37.5525 223.588 37.5525 222.455 37.4859C221.355 37.4192 220.338 37.3859 219.405 37.3859C218.472 37.2525 217.605 36.9525 216.805 36.4859C215.905 35.8525 215.155 35.0359 214.555 34.0359C213.955 33.0025 213.472 31.8859 213.105 30.6859C212.738 29.4525 212.488 28.1525 212.355 26.7859C212.222 25.4192 212.188 24.0525 212.255 22.6859C212.355 21.4525 212.455 20.2692 212.555 19.1359C212.688 17.9692 212.955 16.8359 213.355 15.7359C213.788 14.7692 214.455 13.9525 215.355 13.2859C216.255 12.5859 217.272 12.0692 218.405 11.7359C219.538 11.3692 220.738 11.1692 222.005 11.1359C223.272 11.1025 224.505 11.2359 225.705 11.5359C227.238 11.8025 228.472 12.3359 229.405 13.1359C230.338 13.9359 231.038 14.9025 231.505 16.0359C232.005 17.1692 232.305 18.4192 232.405 19.7859C232.505 21.1525 232.505 22.5359 232.405 23.9359C232.172 24.0025 231.722 24.0692 231.055 24.1359C230.422 24.2025 229.655 24.2692 228.755 24.3359C227.888 24.4025 226.955 24.4525 225.955 24.4859C224.955 24.5192 223.988 24.5359 223.055 24.5359C222.155 24.5359 221.338 24.5192 220.605 24.4859ZM226.455 17.9359C226.122 17.3359 225.655 16.8859 225.055 16.5859C224.788 16.4192 224.522 16.3025 224.255 16.2359C223.988 16.1359 223.672 16.0859 223.305 16.0859C222.505 16.0859 221.855 16.1692 221.355 16.3359C220.855 16.5025 220.455 16.7359 220.155 17.0359C219.855 17.3359 219.622 17.6859 219.455 18.0859C219.322 18.4859 219.222 18.9025 219.155 19.3359C219.088 19.7025 219.055 19.9692 219.055 20.1359C219.088 20.2692 219.255 20.3692 219.555 20.4359C219.855 20.4692 220.322 20.4859 220.955 20.4859C221.622 20.4525 222.588 20.4359 223.855 20.4359C224.722 20.4359 225.372 20.4525 225.805 20.4859C226.238 20.5192 226.538 20.5359 226.705 20.5359C226.905 20.5025 227.005 20.4525 227.005 20.3859C227.005 20.2859 227.005 20.1025 227.005 19.8359C227.005 19.1692 226.822 18.5359 226.455 17.9359Z" fill="white"/>
<path d="M214.448 2.18584C214.781 2.18584 215.048 2.20251 215.248 2.23584V2.28584C214.315 5.28584 213.215 8.21917 211.948 11.0858C210.681 13.9525 209.365 16.8192 207.998 19.6858C206.631 22.5192 205.298 25.3692 203.998 28.2358C202.698 31.0692 201.548 33.9525 200.548 36.8858C200.348 36.8525 200.148 36.8358 199.948 36.8358C199.748 36.8358 199.531 36.8358 199.298 36.8358C198.598 36.8358 197.831 36.8525 196.998 36.8858C196.165 36.9525 195.365 36.9858 194.598 36.9858C194.398 36.9858 194.198 36.9858 193.998 36.9858C193.798 36.9858 193.598 36.9692 193.398 36.9358H193.298C194.165 34.2358 195.181 31.4192 196.348 28.4858C197.515 25.5192 198.681 22.5692 199.848 19.6358V19.5358C199.481 18.0692 199.015 16.6192 198.448 15.1858C197.881 13.7192 197.281 12.2692 196.648 10.8358C196.048 9.40251 195.465 7.96917 194.898 6.53584C194.331 5.10251 193.881 3.68584 193.548 2.28584C194.215 2.28584 194.915 2.23584 195.648 2.13584C196.381 2.03584 197.115 1.98584 197.848 1.98584C198.248 1.98584 198.648 2.01917 199.048 2.08584C199.448 2.11917 199.831 2.21917 200.198 2.38584C200.365 3.11917 200.598 3.98584 200.898 4.98584C201.231 5.98584 201.565 7.00251 201.898 8.03584C202.265 9.06917 202.631 10.0525 202.998 10.9858C203.398 11.9192 203.748 12.7025 204.048 13.3358C204.381 12.7358 204.715 11.9692 205.048 11.0358C205.415 10.0692 205.765 9.06917 206.098 8.03584C206.465 7.00251 206.815 5.98584 207.148 4.98584C207.481 3.98584 207.798 3.1525 208.098 2.48584C208.698 2.35251 209.498 2.26917 210.498 2.23584C211.531 2.16917 212.481 2.13584 213.348 2.13584C213.748 2.13584 214.115 2.1525 214.448 2.18584Z" fill="white"/>
<path d="M168.209 0.48584C168.776 0.48584 169.276 0.519174 169.709 0.585842V11.5358C169.709 12.6358 169.676 13.8025 169.61 15.0358C169.576 16.2692 169.609 17.2692 169.709 18.0358C170.276 17.5358 170.759 16.9858 171.159 16.3858C171.593 15.7858 171.993 15.1858 172.36 14.5858C172.726 13.9525 173.093 13.3192 173.459 12.6858C173.859 12.0525 174.309 11.4525 174.809 10.8858C175.243 11.0525 175.809 11.1525 176.509 11.1858C177.209 11.1858 177.926 11.1858 178.659 11.1858C179.426 11.1525 180.176 11.1192 180.91 11.0858C181.643 11.0192 182.243 11.0025 182.709 11.0358C181.476 12.9358 180.143 14.8192 178.709 16.6858C177.276 18.5192 175.859 20.3692 174.459 22.2358C175.959 24.6692 177.459 27.0858 178.959 29.4858C180.493 31.8525 181.893 34.3192 183.159 36.8858C182.693 36.8858 182.093 36.9025 181.36 36.9358C180.66 37.0025 179.926 37.0525 179.159 37.0858C178.393 37.1192 177.643 37.1192 176.909 37.0858C176.209 37.0525 175.61 36.9858 175.11 36.8858C174.61 36.0858 174.143 35.2692 173.709 34.4358C173.309 33.6025 172.909 32.7858 172.509 31.9858C172.109 31.1525 171.676 30.3358 171.209 29.5358C170.776 28.7358 170.276 27.9692 169.709 27.2358C169.709 27.8358 169.726 28.5358 169.759 29.3358C169.793 30.1358 169.809 30.9692 169.809 31.8358C169.809 32.7025 169.793 33.5858 169.759 34.4858C169.726 35.3525 169.643 36.1525 169.509 36.8858C169.143 36.8525 168.676 36.8525 168.11 36.8858C167.576 36.8858 167.009 36.9025 166.409 36.9358C165.809 36.9692 165.193 36.9858 164.559 36.9858C163.959 36.9858 163.409 36.9525 162.909 36.8858C162.676 30.6858 162.626 24.6025 162.759 18.6358C162.893 12.6692 162.943 6.65251 162.909 0.585842C163.409 0.585842 163.959 0.585842 164.559 0.585842C165.193 0.552507 165.809 0.53584 166.409 0.53584C167.043 0.502507 167.643 0.48584 168.209 0.48584Z" fill="white"/>
<path d="M155.808 11.7359C156.575 11.7693 157.491 11.7693 158.558 11.7359H159.408V11.8859C159.375 15.9193 159.291 20.0359 159.158 24.2359C159.058 28.4359 159.125 32.5526 159.358 36.5859C159.191 36.7859 158.775 36.8859 158.108 36.8859C157.441 36.9193 156.708 36.9193 155.908 36.8859C155.141 36.8859 154.408 36.8693 153.708 36.8359C153.008 36.8026 152.541 36.8193 152.308 36.8859C152.475 34.7859 152.541 32.6526 152.508 30.4859C152.508 28.3193 152.475 26.1693 152.408 24.0359C152.341 21.9026 152.308 19.8026 152.308 17.7359C152.308 15.6359 152.408 13.6026 152.608 11.6359V11.5859C152.741 11.5526 152.958 11.5526 153.258 11.5859C153.591 11.6193 153.841 11.6359 154.008 11.6359C154.441 11.6693 155.041 11.7026 155.808 11.7359ZM152.458 4.73594C152.391 3.66927 152.375 2.36927 152.408 0.835938L159.208 0.985936C159.208 1.18594 159.208 1.5526 159.208 2.08594C159.241 2.58594 159.258 3.1526 159.258 3.78593C159.291 4.38594 159.308 5.01927 159.308 5.68594C159.341 6.31927 159.358 6.88594 159.358 7.38594C159.225 7.58594 158.908 7.71927 158.408 7.78594C157.941 7.8526 157.375 7.88594 156.708 7.88594C156.075 7.8526 155.391 7.81927 154.658 7.78594C153.925 7.71927 153.241 7.7026 152.608 7.73594C152.608 6.76927 152.558 5.76927 152.458 4.73594Z" fill="white"/>
<path d="M142.203 23.0859C142.236 21.4859 142.286 20.0359 142.353 18.7359V12.0359C142.886 12.1026 143.436 12.1193 144.003 12.0859C144.603 12.0526 145.186 12.0193 145.753 11.9859C146.32 11.9193 146.853 11.8693 147.353 11.8359C147.886 11.8026 148.37 11.8193 148.803 11.8859C148.903 12.6859 148.953 13.6526 148.953 14.7859C148.953 15.8859 148.936 17.0026 148.903 18.1359C148.903 19.2359 148.886 20.3026 148.853 21.3359C148.82 22.3359 148.836 23.1359 148.903 23.7359C148.903 25.3693 148.903 26.9359 148.903 28.4359C148.936 29.9026 148.936 31.3693 148.903 32.8359C148.903 34.2693 148.836 35.7193 148.703 37.1859C148.603 38.6859 148.42 40.2359 148.153 41.8359C147.72 42.8693 147.003 43.6859 146.003 44.2859C145.036 44.8859 143.92 45.3359 142.653 45.6359C141.386 45.9359 140.036 46.1193 138.603 46.1859C137.17 46.2859 135.786 46.3026 134.453 46.2359C134.286 45.7359 134.186 45.1859 134.153 44.5859C134.086 43.9859 134.07 43.3859 134.103 42.7859C134.136 42.1859 134.186 41.6026 134.253 41.0359C134.32 40.4693 134.386 39.9526 134.453 39.4859C135.02 39.5193 135.686 39.5193 136.453 39.4859C137.186 39.4526 137.92 39.3526 138.653 39.1859C139.386 39.0526 140.07 38.8526 140.703 38.5859C141.336 38.3193 141.82 37.9526 142.153 37.4859C142.186 36.0859 142.203 34.5693 142.203 32.9359C142.203 31.3026 142.203 29.6526 142.203 27.9859C142.203 26.3193 142.203 24.6859 142.203 23.0859ZM142.103 4.73594C142.036 3.66927 142.02 2.36927 142.053 0.835938L148.703 0.985936C148.703 1.18594 148.703 1.5526 148.703 2.08594C148.736 2.58594 148.753 3.1526 148.753 3.78593C148.786 4.38594 148.803 5.01927 148.803 5.68594C148.836 6.31927 148.853 6.88594 148.853 7.38594C148.72 7.58594 148.42 7.71927 147.953 7.78594C147.486 7.8526 146.936 7.88594 146.303 7.88594C145.703 7.8526 145.036 7.81927 144.303 7.78594C143.57 7.71927 142.886 7.7026 142.253 7.73594C142.253 6.76927 142.203 5.76927 142.103 4.73594Z" fill="white"/>
<path d="M119.841 15.5858C120.041 14.9525 120.191 14.4525 120.291 14.0858C120.524 13.5858 120.891 13.1525 121.391 12.7858C121.924 12.4191 122.524 12.1191 123.191 11.8858C123.891 11.6191 124.624 11.4358 125.391 11.3358C126.191 11.2358 126.991 11.1858 127.791 11.1858C128.458 11.2525 129.091 11.2691 129.691 11.2358C130.324 11.1691 130.991 11.1691 131.691 11.2358C132.758 11.3025 133.774 11.5191 134.741 11.8858C135.708 12.2191 136.541 12.7191 137.241 13.3858C137.708 13.6858 138.074 14.1691 138.341 14.8358C138.608 15.5025 138.808 16.2858 138.941 17.1858C139.074 18.0525 139.158 19.0191 139.191 20.0858C139.224 21.1191 139.258 22.1858 139.291 23.2858C139.258 24.2525 139.208 25.3525 139.141 26.5858C139.108 27.8191 139.024 29.0025 138.891 30.1358C138.791 31.2691 138.641 32.2858 138.441 33.1858C138.274 34.0858 138.024 34.7025 137.691 35.0358C137.124 35.8358 136.374 36.4025 135.441 36.7358C134.541 37.0691 133.558 37.2691 132.491 37.3358C131.424 37.4358 130.324 37.4358 129.191 37.3358C128.058 37.2691 127.024 37.2358 126.091 37.2358C124.391 36.9358 122.958 36.2025 121.791 35.0358C120.891 34.2358 120.274 33.2358 119.941 32.0358C119.608 30.8358 119.408 29.5858 119.341 28.2858C119.274 26.9525 119.258 25.6191 119.291 24.2858C119.358 22.9525 119.341 21.7358 119.241 20.6358C119.241 20.0358 119.258 19.4525 119.291 18.8858C119.324 18.2858 119.391 17.6691 119.491 17.0358C119.524 16.6691 119.641 16.1858 119.841 15.5858ZM128.241 18.8858C127.541 19.0858 126.974 19.4525 126.541 19.9858C126.341 20.1191 126.191 20.4525 126.091 20.9858C125.958 22.0525 125.891 23.1191 125.891 24.1858C125.891 25.2191 125.858 26.3191 125.791 27.4858C125.758 28.2525 125.958 28.8525 126.391 29.2858C126.824 29.6858 127.341 29.9691 127.941 30.1358C128.574 30.2691 129.224 30.3025 129.891 30.2358C130.558 30.1358 131.108 29.9691 131.541 29.7358C132.108 29.4691 132.491 28.9191 132.691 28.0858C132.824 27.0191 132.924 25.9525 132.991 24.8858C133.091 23.7858 133.041 22.7525 132.841 21.7858C132.674 20.6191 132.191 19.7691 131.391 19.2358C130.591 18.7025 129.541 18.5858 128.241 18.8858Z" fill="white"/>
<path d="M109.238 9.63589C109.238 6.60256 109.388 3.56922 109.688 0.535889L116.488 0.68589C116.488 2.05256 116.471 3.70256 116.438 5.63589C116.405 7.56922 116.371 9.63589 116.338 11.8359C116.305 14.0359 116.271 16.3192 116.238 18.6859C116.238 21.0526 116.238 23.3359 116.238 25.5359C116.238 27.7359 116.255 29.8026 116.288 31.7359C116.321 33.6359 116.371 35.2526 116.438 36.5859C116.271 36.7859 115.855 36.8859 115.188 36.8859C114.521 36.9192 113.788 36.9192 112.988 36.8859C112.221 36.8859 111.488 36.8692 110.788 36.8359C110.088 36.8026 109.621 36.8192 109.388 36.8859C109.621 33.8859 109.705 30.8692 109.638 27.8359C109.605 24.8026 109.538 21.7692 109.438 18.7359C109.338 15.7026 109.271 12.6692 109.238 9.63589Z" fill="white"/>
<path d="M87.126 15.5858C87.326 14.9525 87.476 14.4525 87.576 14.0858C87.8093 13.5858 88.176 13.1525 88.676 12.7858C89.2093 12.4191 89.8093 12.1191 90.476 11.8858C91.176 11.6191 91.9093 11.4358 92.676 11.3358C93.476 11.2358 94.276 11.1858 95.076 11.1858C95.7427 11.2525 96.376 11.2691 96.976 11.2358C97.6093 11.1691 98.276 11.1691 98.976 11.2358C100.043 11.3025 101.059 11.5191 102.026 11.8858C102.993 12.2191 103.826 12.7191 104.526 13.3858C104.993 13.6858 105.359 14.1691 105.626 14.8358C105.893 15.5025 106.093 16.2858 106.226 17.1858C106.359 18.0525 106.443 19.0191 106.476 20.0858C106.509 21.1191 106.543 22.1858 106.576 23.2858C106.543 24.2525 106.493 25.3525 106.426 26.5858C106.393 27.8191 106.309 29.0025 106.176 30.1358C106.076 31.2691 105.926 32.2858 105.726 33.1858C105.559 34.0858 105.309 34.7025 104.976 35.0358C104.409 35.8358 103.659 36.4025 102.726 36.7358C101.826 37.0691 100.843 37.2691 99.776 37.3358C98.7093 37.4358 97.6093 37.4358 96.476 37.3358C95.3427 37.2691 94.3093 37.2358 93.376 37.2358C91.676 36.9358 90.2427 36.2025 89.076 35.0358C88.176 34.2358 87.5593 33.2358 87.226 32.0358C86.8927 30.8358 86.6927 29.5858 86.626 28.2858C86.5593 26.9525 86.5427 25.6191 86.576 24.2858C86.6427 22.9525 86.626 21.7358 86.526 20.6358C86.526 20.0358 86.5427 19.4525 86.576 18.8858C86.6093 18.2858 86.676 17.6691 86.776 17.0358C86.8093 16.6691 86.926 16.1858 87.126 15.5858ZM95.526 18.8858C94.826 19.0858 94.2593 19.4525 93.826 19.9858C93.626 20.1191 93.476 20.4525 93.376 20.9858C93.2427 22.0525 93.176 23.1191 93.176 24.1858C93.176 25.2191 93.1427 26.3191 93.076 27.4858C93.0427 28.2525 93.2427 28.8525 93.676 29.2858C94.1093 29.6858 94.626 29.9691 95.226 30.1358C95.8593 30.2691 96.5093 30.3025 97.176 30.2358C97.8427 30.1358 98.3927 29.9691 98.826 29.7358C99.3927 29.4691 99.776 28.9191 99.976 28.0858C100.109 27.0191 100.209 25.9525 100.276 24.8858C100.376 23.7858 100.326 22.7525 100.126 21.7858C99.9593 20.6191 99.476 19.7691 98.676 19.2358C97.876 18.7025 96.826 18.5858 95.526 18.8858Z" fill="white"/>
<path d="M71.2163 13.3357C71.2163 13.7024 71.233 14.1191 71.2663 14.5857C71.433 14.4857 71.633 14.3691 71.8663 14.2357C72.133 14.1024 72.3496 13.9691 72.5163 13.8357C73.2163 13.3357 73.9996 12.9357 74.8663 12.6357C75.733 12.3357 76.6163 12.1691 77.5163 12.1357C78.4496 12.1024 79.3496 12.2024 80.2163 12.4357C81.083 12.6691 81.8663 13.0857 82.5663 13.6857C82.8996 13.9857 83.1496 14.6191 83.3163 15.5857C83.5163 16.5191 83.633 17.6524 83.6663 18.9857C83.733 20.3191 83.7496 21.7857 83.7163 23.3857C83.7163 24.9524 83.6996 26.5524 83.6663 28.1857C83.633 29.7857 83.5996 31.3357 83.5663 32.8357C83.533 34.3357 83.5496 35.6524 83.6163 36.7857C82.4496 36.9524 81.3996 37.0191 80.4663 36.9857C79.5663 36.9857 78.533 36.9857 77.3663 36.9857C77.2996 36.2191 77.2663 35.3524 77.2663 34.3857C77.2663 33.4191 77.2663 32.4191 77.2663 31.3857C77.2996 30.3524 77.2996 29.3191 77.2663 28.2857C77.2663 27.2524 77.233 26.2857 77.1663 25.3857C77.133 24.9857 77.0996 24.5524 77.0663 24.0857C77.033 23.5857 76.9663 23.1024 76.8663 22.6357C76.7996 22.1691 76.683 21.7524 76.5163 21.3857C76.383 21.0191 76.183 20.7357 75.9163 20.5357C75.883 20.5024 75.8496 20.4857 75.8163 20.4857C75.783 20.4857 75.7496 20.4691 75.7163 20.4357C75.4496 20.3024 75.0496 20.2024 74.5163 20.1357C74.0163 20.0357 73.5163 20.0691 73.0163 20.2357C72.5163 20.3691 72.0663 20.6691 71.6663 21.1357C71.2663 21.5691 71.033 22.2357 70.9663 23.1357C70.8996 24.3024 70.883 25.4524 70.9163 26.5857C70.9496 27.6857 70.983 28.8024 71.0163 29.9357C71.083 31.0357 71.1163 32.1357 71.1163 33.2357C71.1163 34.3357 71.0496 35.4357 70.9163 36.5357V36.7357C70.3496 36.9024 69.8496 37.0024 69.4163 37.0357C69.0163 37.0691 68.5996 37.0691 68.1663 37.0357C67.733 37.0357 67.2496 37.0191 66.7163 36.9857C66.183 36.9524 65.5163 36.9691 64.7163 37.0357C64.7163 32.9357 64.6663 28.8357 64.5663 24.7357C64.4996 20.6357 64.533 16.3857 64.6663 11.9857C65.0663 12.0191 65.3996 12.0524 65.6663 12.0857C65.933 12.0857 66.183 12.0857 66.4163 12.0857C66.6496 12.0857 66.8996 12.0857 67.1663 12.0857C67.433 12.0524 67.7663 12.0191 68.1663 11.9857C68.2996 11.9857 68.533 11.9691 68.8663 11.9357C69.1996 11.8691 69.533 11.8191 69.8663 11.7857C70.1996 11.7524 70.4996 11.7524 70.7663 11.7857C71.033 11.7857 71.1663 11.8357 71.1663 11.9357C71.233 12.5024 71.2496 12.9691 71.2163 13.3357Z" fill="white"/>
<path d="M48.2876 0.48584C48.8543 0.48584 49.3543 0.519174 49.7876 0.585842V11.5358C49.7876 12.6358 49.7543 13.8025 49.6876 15.0358C49.6543 16.2692 49.6876 17.2692 49.7876 18.0358C50.3543 17.5358 50.8376 16.9858 51.2376 16.3858C51.671 15.7858 52.071 15.1858 52.4376 14.5858C52.8043 13.9525 53.171 13.3192 53.5376 12.6858C53.9376 12.0525 54.3876 11.4525 54.8876 10.8858C55.321 11.0525 55.8876 11.1525 56.5876 11.1858C57.2876 11.1858 58.0043 11.1858 58.7376 11.1858C59.5043 11.1525 60.2543 11.1192 60.9876 11.0858C61.721 11.0192 62.321 11.0025 62.7876 11.0358C61.5543 12.9358 60.221 14.8192 58.7876 16.6858C57.3543 18.5192 55.9376 20.3692 54.5376 22.2358C56.0376 24.6692 57.5376 27.0858 59.0376 29.4858C60.571 31.8525 61.971 34.3192 63.2376 36.8858C62.771 36.8858 62.171 36.9025 61.4376 36.9358C60.7376 37.0025 60.0043 37.0525 59.2376 37.0858C58.471 37.1192 57.721 37.1192 56.9876 37.0858C56.2876 37.0525 55.6876 36.9858 55.1876 36.8858C54.6876 36.0858 54.221 35.2692 53.7876 34.4358C53.3876 33.6025 52.9876 32.7858 52.5876 31.9858C52.1876 31.1525 51.7543 30.3358 51.2876 29.5358C50.8543 28.7358 50.3543 27.9692 49.7876 27.2358C49.7876 27.8358 49.8043 28.5358 49.8376 29.3358C49.871 30.1358 49.8876 30.9692 49.8876 31.8358C49.8876 32.7025 49.871 33.5858 49.8376 34.4858C49.8043 35.3525 49.721 36.1525 49.5876 36.8858C49.221 36.8525 48.7543 36.8525 48.1876 36.8858C47.6543 36.8858 47.0876 36.9025 46.4876 36.9358C45.8876 36.9692 45.271 36.9858 44.6376 36.9858C44.0376 36.9858 43.4876 36.9525 42.9876 36.8858C42.7543 30.6858 42.7043 24.6025 42.8376 18.6358C42.971 12.6692 43.021 6.65251 42.9876 0.585842C43.4876 0.585842 44.0376 0.585842 44.6376 0.585842C45.271 0.552507 45.8876 0.53584 46.4876 0.53584C47.121 0.502507 47.721 0.48584 48.2876 0.48584Z" fill="white"/>
<path d="M28.2712 24.4859C27.5378 24.4525 27.0045 24.4025 26.6712 24.3359V25.2359C26.7045 26.2359 26.7378 27.0525 26.7712 27.6859C26.8378 28.3192 27.0545 28.9359 27.4212 29.5359C27.8212 30.3025 28.3878 30.8692 29.1212 31.2359C29.8545 31.6025 30.5712 31.7192 31.2712 31.5859C31.9712 31.4525 32.5545 31.0525 33.0212 30.3859C33.5212 29.6859 33.7378 28.6525 33.6712 27.2859C34.0045 27.3192 34.4545 27.3359 35.0212 27.3359C35.5878 27.3025 36.1712 27.2692 36.7712 27.2359C37.4045 27.2025 38.0045 27.2025 38.5712 27.2359C39.1378 27.2359 39.6045 27.2859 39.9712 27.3859C39.9045 28.2525 39.8378 29.1025 39.7712 29.9359C39.7045 30.7692 39.6212 31.5525 39.5212 32.2859C39.4212 32.9859 39.2878 33.6025 39.1212 34.1359C38.9878 34.6359 38.8045 34.9859 38.5712 35.1859C38.0045 35.9859 37.2712 36.5525 36.3712 36.8859C35.4712 37.2192 34.4878 37.4192 33.4212 37.4859C32.3545 37.5525 31.2545 37.5525 30.1212 37.4859C29.0212 37.4192 28.0045 37.3859 27.0712 37.3859C26.1378 37.2525 25.2712 36.9525 24.4712 36.4859C23.5712 35.8525 22.8212 35.0359 22.2212 34.0359C21.6212 33.0025 21.1378 31.8859 20.7712 30.6859C20.4045 29.4525 20.1545 28.1525 20.0212 26.7859C19.8878 25.4192 19.8545 24.0525 19.9212 22.6859C20.0212 21.4525 20.1212 20.2692 20.2212 19.1359C20.3545 17.9692 20.6212 16.8359 21.0212 15.7359C21.4545 14.7692 22.1212 13.9525 23.0212 13.2859C23.9212 12.5859 24.9378 12.0692 26.0712 11.7359C27.2045 11.3692 28.4045 11.1692 29.6712 11.1359C30.9378 11.1025 32.1712 11.2359 33.3712 11.5359C34.9045 11.8025 36.1378 12.3359 37.0712 13.1359C38.0045 13.9359 38.7045 14.9025 39.1712 16.0359C39.6712 17.1692 39.9712 18.4192 40.0712 19.7859C40.1712 21.1525 40.1712 22.5359 40.0712 23.9359C39.8378 24.0025 39.3878 24.0692 38.7212 24.1359C38.0878 24.2025 37.3211 24.2692 36.4212 24.3359C35.5545 24.4025 34.6212 24.4525 33.6212 24.4859C32.6212 24.5192 31.6545 24.5359 30.7212 24.5359C29.8212 24.5359 29.0045 24.5192 28.2712 24.4859ZM34.1212 17.9359C33.7878 17.3359 33.3212 16.8859 32.7212 16.5859C32.4545 16.4192 32.1878 16.3025 31.9212 16.2359C31.6545 16.1359 31.3378 16.0859 30.9712 16.0859C30.1712 16.0859 29.5212 16.1692 29.0212 16.3359C28.5212 16.5025 28.1212 16.7359 27.8212 17.0359C27.5212 17.3359 27.2878 17.6859 27.1212 18.0859C26.9878 18.4859 26.8878 18.9025 26.8212 19.3359C26.7545 19.7025 26.7212 19.9692 26.7212 20.1359C26.7545 20.2692 26.9212 20.3692 27.2212 20.4359C27.5212 20.4692 27.9878 20.4859 28.6212 20.4859C29.2878 20.4525 30.2545 20.4359 31.5212 20.4359C32.3878 20.4359 33.0378 20.4525 33.4712 20.4859C33.9045 20.5192 34.2045 20.5359 34.3712 20.5359C34.5712 20.5025 34.6712 20.4525 34.6712 20.3859C34.6712 20.2859 34.6712 20.1025 34.6712 19.8359C34.6712 19.1692 34.4878 18.5359 34.1212 17.9359Z" fill="white"/>
<path d="M10.5838 1.63576C14.2171 1.60243 17.7505 1.76909 21.1838 2.13576C21.2505 3.23576 21.2671 4.50242 21.2338 5.93576C21.2338 7.36909 21.1505 8.68576 20.9838 9.88576C20.3505 9.75243 19.5671 9.70243 18.6338 9.73576C17.7005 9.76909 16.4505 9.81909 14.8838 9.88576H14.7838H14.7338C14.7338 9.91909 14.7171 9.95243 14.6838 9.98576C14.6838 9.98576 14.6838 10.0024 14.6838 10.0358C14.6505 10.2024 14.6171 10.4691 14.5838 10.8358C14.5838 11.1691 14.5838 11.7191 14.5838 12.4858C14.5838 13.2191 14.5838 14.2024 14.5838 15.4358C14.6171 16.6358 14.6505 18.2024 14.6838 20.1358C14.7171 22.0358 14.7505 24.3358 14.7838 27.0358C14.8171 29.7024 14.8671 32.8524 14.9338 36.4858V36.5358V36.5858C14.3338 36.6858 13.6671 36.7524 12.9338 36.7858C12.2338 36.7858 11.5171 36.7858 10.7838 36.7858C10.0838 36.7858 9.38381 36.7858 8.68381 36.7858C7.98381 36.7858 7.33381 36.8358 6.73381 36.9358C6.70048 36.8024 6.70048 36.2024 6.73381 35.1358C6.76715 34.0691 6.78381 32.4858 6.78381 30.3858C6.81715 28.2524 6.80048 25.5358 6.73381 22.2358C6.70048 18.9358 6.58381 14.9524 6.38381 10.2858L6.33381 10.2358C5.93381 10.0358 5.43381 9.91909 4.83381 9.88576C4.23381 9.81909 3.63381 9.78576 3.03381 9.78576C2.43381 9.75243 1.88381 9.73576 1.38381 9.73576C0.883814 9.73576 0.533813 9.70243 0.333813 9.63576C0.267147 9.50243 0.20048 9.16909 0.133814 8.63576C0.10048 8.10243 0.0671468 7.46909 0.0338135 6.73576C0.0338135 5.96909 0.0338135 5.15243 0.0338135 4.28576C0.0338135 3.41909 0.0671468 2.58576 0.133814 1.78576C0.133814 1.75243 0.117147 1.73576 0.0838135 1.73576C0.0838135 1.73576 0.0838135 1.71909 0.0838135 1.68576C3.48381 1.65242 6.98381 1.63576 10.5838 1.63576Z" fill="white"/>
</svg>
